#!OML:ASF F:\VICON\USERDATA\INSTALL\rory3\rory3.ASF
:FULLY-SPECIFIED
:DEGREES
60
root 1.1028877598795246 17.81829579488012 27.151104796157842 -2.5582908559271993 1.5754986887371851 1.8376476426476067
lfemur 8.771784714830593 -2.450417088193155 -27.380267660609384
ltibia 15.602616588777451
lfoot -13.878094117109486 -1.5639412687731367
ltoes -7.334425017966298
rfemur -30.249284019694016 -2.1324884878429273 20.82447821809159
rtibia 34.500084077964175
rfoot -4.784794838544272 -13.94536615099065
rtoes -1.471434623916962
lowerback 11.12512466676487 -0.7845529394922902 -3.527038033829995
upperback 0.21922782969747254 -1.473727031496132 1.0919472029090276
thorax -6.052757765039458 -0.6026986688166691 3.476251321784445
lowerneck -16.4777085248876 -3.117095455454417 -3.3317736177826895
upperneck 21.74242634478771 -3.8908537005465154 1.953980633424949
head 9.562819144102109 -1.8528759075152603 0.7611865768317704
lclavicle -2.024811712913562e-15 -7.107004836308529e-16
lhumerus -24.814597015670593 -1.4068443832332127 80.17005597798564
lradius 28.679186945827784
lwrist 9.363295526400757
lhand -30.237895985221535 20.178733419614442
lfingers 7.12502
lthumb -3.44056421688405 50.565658852440215
rclavicle -2.0271804980213198e-15 -7.121951853164063e-16
rhumerus -32.539856513597705 -21.53752991346764 -75.93993659387647
rradius 26.320730859346455
rwrist 4.155046889867219
rhand -17.43602819748149 22.830233758402674
rfingers 7.12502
rthumb 8.607163745325495 -7.155226914033464
61
root 1.0353501144668882 17.74661337578967 28.165149919203515 -1.844742053320655 2.3405823272530295 2.1656067061669972
lfemur 13.16777408143413 -2.6240496275491916 -27.42844622156005
ltibia 12.49579604342959
lfoot -13.647460355572447 -3.004688621599366
ltoes -11.0626721618072
rfemur -29.346745837168342 1.6372727499138897 18.959861830023524
rtibia 22.42447273800454
rfoot -5.755659376356973 -16.70717971415838
rtoes -3.1933356390377825
lowerback 10.619551214608357 -1.1428626403782667 -4.265474240357747
upperback 0.12391797869846413 -2.0184273677360784 1.1257449743794088
thorax -5.8488025184216195 -0.857272036026955 4.166055535201785
lowerneck -16.5901790101129 -3.1046520008448906 -3.3880494226899893
upperneck 21.715031662825496 -3.863264594886647 1.9139773483289684
head 9.595011878746233 -1.8420182471326711 0.7403144607651508
lclavicle -2.0245576162330523e-15 -7.105408150096029e-16
lhumerus -23.651926600384634 -2.043453860425851 79.82345399341206
lradius 30.099853035727048
lwrist 10.199611717378847
lhand -30.560578400040548 20.008650083084348
lfingers 7.12502
lthumb -3.785472680658494 50.193994586351025
rclavicle -2.0277045308802798e-15 -7.125298073616435e-16
rhumerus -33.24690481086249 -22.450064793015997 -75.05369218439652
rradius 24.830551733080334
rwrist 5.587134597688093
rhand -17.505793526709205 23.0103181478078
rfingers 7.12502
rthumb 8.58068883865486 -6.880501583270455
62
root 0.953387178664028 17.625523871935084 29.114731146734762 -1.6393126137192429 2.544813964139892 2.058464338790065
lfemur 15.870474890007356 -3.3550930411369624 -27.108939907672923
ltibia 13.727723412186734
lfoot -13.279286385437945 -4.218433880851194
ltoes -13.753150620969777
rfemur -28.684966993408914 4.208422376469274 18.449674928001844
rtibia 17.394988454132037
rfoot -8.183466373555227 -16.364533966668294
rtoes -6.364789178355357
lowerback 10.580109654863403 -1.2916293731885953 -4.4623183733075775
upperback 0.061717166494682896 -2.207246553038266 1.2421822893761023
thorax -5.858091142234966 -0.934764326986451 4.616269164021057
lowerneck -16.661462462700367 -3.096439791189296 -3.480567623757209
upperneck 21.594425484988243 -3.850470746960936 1.8372529091512284
head 9.560963032404791 -1.8325601553489128 0.719057740425451
lclavicle -2.0247697166212255e-15 -7.106758997620377e-16
lhumerus -23.227469573603486 -2.1243167328791577 79.7806840698696
lradius 31.115790734236235
lwrist 10.354920785585668
lhand -30.855794854321378 19.231195769262328
lfingers 7.12502
lthumb -4.099733079939561 49.174664161286366
rclavicle -2.0279156808971877e-15 -7.126646295382248e-16
rhumerus -34.02172109482951 -23.718995695349975 -74.0024490602657
rradius 23.137337572832536
rwrist 7.53431270764958
rhand -17.655697184664582 22.992387207061952
rfingers 7.12502
rthumb 8.461905151094259 -6.889494331509135
63
root 0.8665243952429041 17.55394758582501 30.054038012900218 -1.9914035151617915 2.585072175914596 1.7419315512302855
lfemur 17.288424861679168 -4.544006311944647 -26.714709493516082
ltibia 18.041392411795798
lfoot -11.83386658184484 -5.110336854433899
ltoes -17.496769754599114
rfemur -28.940240278037994 2.0540012628319944 20.5069485768072
rtibia 21.6985619389653
rfoot -7.582237449936466 -12.703286865332103
rtoes -7.590669139595542
lowerback 10.697510169499212 -1.4330777151690772 -4.246720707738308
upperback 0.11016545027380018 -2.4086531494826837 1.4448735453408448
thorax -5.852647279886401 -1.0249062476025772 4.943584819731492
lowerneck -16.7128826804121 -3.053541139977064 -3.497790770049683
upperneck 21.606156546191617 -3.7531458028622753 1.6089179786065428
head 9.58855521327862 -1.8030698562533567 0.6547599711712119
lclavicle -2.0252939663603377e-15 -7.110079476266635e-16
lhumerus -23.50644944497923 -1.447143326188451 79.90677679269217
lradius 31.681371954372622
lwrist 10.35755470768693
lhand -31.431640186519115 18.584814917856605
lfingers 7.12502
lthumb -4.773550006206351 48.334961000424165
rclavicle -2.025857802356762e-15 -7.113505929370566e-16
rhumerus -34.7781416009733 -25.24701542746729 -72.5635528444782
rradius 21.318989648141105
rwrist 10.06661592287223
rhand -17.913904851319757 22.723375986283756
rfingers 7.12502
rthumb 8.224212162908527 -7.273732535068299
64
root 0.7641944968191559 17.624041544574567 30.88069315130659 -2.3096239530777813 2.402676786173534 -0.24055214917817969
lfemur 15.870488738234771 -5.193743701694839 -24.558621455568414
ltibia 26.24691261986481
lfoot -5.811257331519047 -7.3618065547326985
ltoes -22.847247668766588
rfemur -28.45217011382603 2.195286379864006 23.286340559402785
rtibia 25.865688007711306
rfoot -5.111346266334335 -10.37969685589813
rtoes -5.268627899728294
lowerback 10.705566787920437 -1.547350713264276 -2.6591677555292144
upperback -0.0011902540777691956 -2.3350794807407778 1.977020053349094
thorax -5.904772020984036 -1.0151659665374395 4.7679556863945525
lowerneck -16.653766909713827 -3.0137816688989867 -3.5003531057360577
upperneck 21.744241374648528 -3.650286503261597 1.3023988406496776
head 9.62517111002293 -1.7819483219280097 0.5741338134176274
lclavicle -2.025486877321615e-15 -7.111313017235264e-16
lhumerus -24.75892994072222 -0.07063650352427109 80.26636165238237
lradius 31.656106758707992
lwrist 10.164096877386301
lhand -31.541350039062056 18.598937274214954
lfingers 7.12502
lthumb -4.928635539410548 48.07877434772138
rclavicle -2.0268736967075686e-15 -7.119992053466268e-16
rhumerus -35.81094702127497 -26.97647577218408 -70.79664228503954
rradius 19.66647282396962
rwrist 12.330830630125124
rhand -18.09065090085077 22.48549213625233
rfingers 7.12502
rthumb 8.164557951335533 -7.580109187126875
65
root 0.6828217976602939 17.689455373218166 31.895454691546124 -2.9309462684633916 1.857435110172093 -1.1793818793368644
lfemur 12.626195314321512 -4.355435101485829 -22.49203219369369
ltibia 36.73902357146855
lfoot 4.029551839985864 -11.78809201188885
ltoes -19.829001463974585
rfemur -26.68796215216537 1.9115241355907244 25.441626936092764
rtibia 29.20915600447791
rfoot -4.728191794903205 -7.560938976782077
rtoes 1.7285217814952243
lowerback 10.752794279083302 -1.50625180916205 -1.8185613809334067
upperback 0.015045636415962432 -2.2150447667527535 2.31173989761677
thorax -5.946928915454066 -0.972461265563819 4.685882919220016
lowerneck -16.544391063094352 -2.9926123620363203 -3.465114476757041
upperneck 21.85416133826727 -3.589380884770942 1.2017322724567965
head 9.64828915142597 -1.7631109678380847 0.555917686363838
lclavicle -2.0243240996172027e-15 -7.103919533919523e-16
lhumerus -26.444909309344077 1.312595344571259 80.67488294504712
lradius 31.17269374890041
lwrist 10.207234592223122
lhand -30.900433520757954 18.995068160290828
lfingers 7.12502
lthumb -4.382031386761337 48.29159773725611
rclavicle -2.024916279389155e-15 -7.107494227381372e-16
rhumerus -36.67980811495636 -28.188058245859075 -69.42639557834134
rradius 18.861745436126803
rwrist 13.179986958072192
rhand -18.025199575923228 22.455234942659224
rfingers 7.12502
rthumb 8.331969722248925 -7.673840227978082
